<mxfile host="app.diagrams.net" modified="2021-12-30T16:28:23.434Z" agent="5.0 (Macintosh; Intel Mac OS X 10_15_7) AppleWebKit/537.36 (KHTML, like Gecko) Chrome/96.0.4664.110 Safari/537.36 Edg/96.0.1054.62" etag="VK8IoU_D5KaDz0SBbPM_" version="16.1.0" type="github">
  <diagram id="Bv0y6tIvnBOKkLBlnXyd" name="Data Flow">
    <mxGraphModel dx="918" dy="623" grid="1" gridSize="10" guides="1" tooltips="1" connect="1" arrows="1" fold="1" page="1" pageScale="1" pageWidth="827" pageHeight="1169" math="0" shadow="0">
      <root>
        <mxCell id="0" />
        <mxCell id="1" parent="0" />
        <mxCell id="hvwg3h25CJ3MVEDBDSs3-28" style="edgeStyle=orthogonalEdgeStyle;rounded=0;orthogonalLoop=1;jettySize=auto;html=1;entryX=0;entryY=0.5;entryDx=0;entryDy=0;entryPerimeter=0;fontFamily=Comic Sans MS;sketch=1;" edge="1" parent="1" source="hvwg3h25CJ3MVEDBDSs3-5" target="hvwg3h25CJ3MVEDBDSs3-21">
          <mxGeometry relative="1" as="geometry" />
        </mxCell>
        <mxCell id="hvwg3h25CJ3MVEDBDSs3-30" value="Init Load" style="edgeLabel;html=1;align=center;verticalAlign=middle;resizable=0;points=[];fontFamily=Comic Sans MS;" vertex="1" connectable="0" parent="hvwg3h25CJ3MVEDBDSs3-28">
          <mxGeometry x="0.0707" y="4" relative="1" as="geometry">
            <mxPoint x="-11" y="-10" as="offset" />
          </mxGeometry>
        </mxCell>
        <mxCell id="hvwg3h25CJ3MVEDBDSs3-5" value="" style="strokeWidth=2;html=1;shape=mxgraph.flowchart.database;whiteSpace=wrap;sketch=1;fillColor=#d5e8d4;strokeColor=#82b366;" vertex="1" parent="1">
          <mxGeometry x="255" y="250" width="60" height="60" as="geometry" />
        </mxCell>
        <mxCell id="hvwg3h25CJ3MVEDBDSs3-6" value="&lt;font face=&quot;Comic Sans MS&quot;&gt;DynamoDB&lt;/font&gt;" style="text;html=1;align=center;verticalAlign=middle;resizable=0;points=[];autosize=1;strokeColor=none;fillColor=none;" vertex="1" parent="1">
          <mxGeometry x="250" y="277" width="70" height="20" as="geometry" />
        </mxCell>
        <mxCell id="hvwg3h25CJ3MVEDBDSs3-8" value="High_Value_CorpoTrees" style="shape=table;startSize=30;container=1;collapsible=0;childLayout=tableLayout;fixedRows=1;rowLines=0;fontStyle=1;align=center;pointerEvents=1;sketch=1;fontFamily=Comic Sans MS;" vertex="1" parent="1">
          <mxGeometry x="40" y="220" width="160" height="120" as="geometry" />
        </mxCell>
        <mxCell id="hvwg3h25CJ3MVEDBDSs3-9" value="" style="shape=partialRectangle;html=1;whiteSpace=wrap;collapsible=0;dropTarget=0;pointerEvents=1;fillColor=none;top=0;left=0;bottom=1;right=0;points=[[0,0.5],[1,0.5]];portConstraint=eastwest;sketch=1;fontFamily=Comic Sans MS;" vertex="1" parent="hvwg3h25CJ3MVEDBDSs3-8">
          <mxGeometry y="30" width="160" height="30" as="geometry" />
        </mxCell>
        <mxCell id="hvwg3h25CJ3MVEDBDSs3-10" value="1" style="shape=partialRectangle;html=1;whiteSpace=wrap;connectable=0;fillColor=none;top=0;left=0;bottom=0;right=0;overflow=hidden;pointerEvents=1;sketch=1;fontFamily=Comic Sans MS;" vertex="1" parent="hvwg3h25CJ3MVEDBDSs3-9">
          <mxGeometry width="36" height="30" as="geometry">
            <mxRectangle width="36" height="30" as="alternateBounds" />
          </mxGeometry>
        </mxCell>
        <mxCell id="hvwg3h25CJ3MVEDBDSs3-11" value="Id1" style="shape=partialRectangle;html=1;whiteSpace=wrap;connectable=0;fillColor=none;top=0;left=0;bottom=0;right=0;align=left;spacingLeft=6;overflow=hidden;pointerEvents=1;sketch=1;fontFamily=Comic Sans MS;" vertex="1" parent="hvwg3h25CJ3MVEDBDSs3-9">
          <mxGeometry x="36" width="124" height="30" as="geometry">
            <mxRectangle width="124" height="30" as="alternateBounds" />
          </mxGeometry>
        </mxCell>
        <mxCell id="hvwg3h25CJ3MVEDBDSs3-12" value="" style="shape=partialRectangle;html=1;whiteSpace=wrap;collapsible=0;dropTarget=0;pointerEvents=1;fillColor=none;top=0;left=0;bottom=0;right=0;points=[[0,0.5],[1,0.5]];portConstraint=eastwest;sketch=1;fontFamily=Comic Sans MS;" vertex="1" parent="hvwg3h25CJ3MVEDBDSs3-8">
          <mxGeometry y="60" width="160" height="30" as="geometry" />
        </mxCell>
        <mxCell id="hvwg3h25CJ3MVEDBDSs3-13" value="2" style="shape=partialRectangle;html=1;whiteSpace=wrap;connectable=0;fillColor=none;top=0;left=0;bottom=0;right=0;overflow=hidden;pointerEvents=1;sketch=1;fontFamily=Comic Sans MS;" vertex="1" parent="hvwg3h25CJ3MVEDBDSs3-12">
          <mxGeometry width="36" height="30" as="geometry">
            <mxRectangle width="36" height="30" as="alternateBounds" />
          </mxGeometry>
        </mxCell>
        <mxCell id="hvwg3h25CJ3MVEDBDSs3-14" value="Id2" style="shape=partialRectangle;html=1;whiteSpace=wrap;connectable=0;fillColor=none;top=0;left=0;bottom=0;right=0;align=left;spacingLeft=6;overflow=hidden;pointerEvents=1;sketch=1;fontFamily=Comic Sans MS;" vertex="1" parent="hvwg3h25CJ3MVEDBDSs3-12">
          <mxGeometry x="36" width="124" height="30" as="geometry">
            <mxRectangle width="124" height="30" as="alternateBounds" />
          </mxGeometry>
        </mxCell>
        <mxCell id="hvwg3h25CJ3MVEDBDSs3-15" value="" style="shape=partialRectangle;html=1;whiteSpace=wrap;collapsible=0;dropTarget=0;pointerEvents=1;fillColor=none;top=0;left=0;bottom=0;right=0;points=[[0,0.5],[1,0.5]];portConstraint=eastwest;sketch=1;fontFamily=Comic Sans MS;" vertex="1" parent="hvwg3h25CJ3MVEDBDSs3-8">
          <mxGeometry y="90" width="160" height="30" as="geometry" />
        </mxCell>
        <mxCell id="hvwg3h25CJ3MVEDBDSs3-16" value="3" style="shape=partialRectangle;html=1;whiteSpace=wrap;connectable=0;fillColor=none;top=0;left=0;bottom=0;right=0;overflow=hidden;pointerEvents=1;sketch=1;fontFamily=Comic Sans MS;" vertex="1" parent="hvwg3h25CJ3MVEDBDSs3-15">
          <mxGeometry width="36" height="30" as="geometry">
            <mxRectangle width="36" height="30" as="alternateBounds" />
          </mxGeometry>
        </mxCell>
        <mxCell id="hvwg3h25CJ3MVEDBDSs3-17" value="Idn" style="shape=partialRectangle;html=1;whiteSpace=wrap;connectable=0;fillColor=none;top=0;left=0;bottom=0;right=0;align=left;spacingLeft=6;overflow=hidden;pointerEvents=1;sketch=1;fontFamily=Comic Sans MS;" vertex="1" parent="hvwg3h25CJ3MVEDBDSs3-15">
          <mxGeometry x="36" width="124" height="30" as="geometry">
            <mxRectangle width="124" height="30" as="alternateBounds" />
          </mxGeometry>
        </mxCell>
        <mxCell id="hvwg3h25CJ3MVEDBDSs3-20" value="" style="shape=curlyBracket;whiteSpace=wrap;html=1;rounded=1;flipH=1;sketch=1;fontFamily=Comic Sans MS;" vertex="1" parent="1">
          <mxGeometry x="220" y="220" width="20" height="120" as="geometry" />
        </mxCell>
        <mxCell id="hvwg3h25CJ3MVEDBDSs3-21" value="" style="strokeWidth=2;outlineConnect=0;dashed=0;align=center;fontSize=8;fillColor=#c0f5a9;verticalLabelPosition=bottom;verticalAlign=top;shape=mxgraph.eip.message_filter;sketch=1;fontFamily=Comic Sans MS;" vertex="1" parent="1">
          <mxGeometry x="420" y="234" width="150" height="90" as="geometry" />
        </mxCell>
        <mxCell id="hvwg3h25CJ3MVEDBDSs3-26" value="" style="outlineConnect=0;dashed=0;verticalLabelPosition=bottom;verticalAlign=top;align=center;html=1;shape=mxgraph.aws3.redis;fillColor=#2E73B8;gradientColor=none;sketch=0;fontFamily=Comic Sans MS;" vertex="1" parent="1">
          <mxGeometry x="420" y="234" width="40" height="43" as="geometry" />
        </mxCell>
        <mxCell id="hvwg3h25CJ3MVEDBDSs3-27" value="Scope BloomFilter" style="text;html=1;align=center;verticalAlign=middle;resizable=0;points=[];autosize=1;strokeColor=none;fillColor=none;fontFamily=Comic Sans MS;" vertex="1" parent="1">
          <mxGeometry x="435" y="320" width="120" height="20" as="geometry" />
        </mxCell>
        <mxCell id="hvwg3h25CJ3MVEDBDSs3-31" value="" style="strokeWidth=2;outlineConnect=0;dashed=0;align=center;fontSize=8;fillColor=#c0f5a9;verticalLabelPosition=bottom;verticalAlign=top;shape=mxgraph.eip.message_filter;sketch=1;fontFamily=Comic Sans MS;" vertex="1" parent="1">
          <mxGeometry x="420" y="390" width="150" height="90" as="geometry" />
        </mxCell>
        <mxCell id="hvwg3h25CJ3MVEDBDSs3-32" value="" style="outlineConnect=0;dashed=0;verticalLabelPosition=bottom;verticalAlign=top;align=center;html=1;shape=mxgraph.aws3.redis;fillColor=#2E73B8;gradientColor=none;sketch=0;fontFamily=Comic Sans MS;" vertex="1" parent="1">
          <mxGeometry x="420" y="390" width="40" height="43" as="geometry" />
        </mxCell>
        <mxCell id="hvwg3h25CJ3MVEDBDSs3-33" value="User Scope BloomFilter" style="text;html=1;align=center;verticalAlign=middle;resizable=0;points=[];autosize=1;strokeColor=none;fillColor=none;fontFamily=Comic Sans MS;" vertex="1" parent="1">
          <mxGeometry x="420" y="476" width="150" height="20" as="geometry" />
        </mxCell>
        <mxCell id="hvwg3h25CJ3MVEDBDSs3-34" value="" style="strokeWidth=2;dashed=0;align=center;fontSize=8;shape=rect;fillColor=#c0f5a9;verticalLabelPosition=bottom;verticalAlign=top;sketch=1;fontFamily=Comic Sans MS;" vertex="1" parent="1">
          <mxGeometry x="420" y="550" width="150" height="90" as="geometry" />
        </mxCell>
        <mxCell id="hvwg3h25CJ3MVEDBDSs3-35" value="User HyperLog" style="text;html=1;align=center;verticalAlign=middle;resizable=0;points=[];autosize=1;strokeColor=none;fillColor=none;fontFamily=Comic Sans MS;" vertex="1" parent="1">
          <mxGeometry x="441" y="640" width="100" height="20" as="geometry" />
        </mxCell>
        <mxCell id="hvwg3h25CJ3MVEDBDSs3-36" value="" style="outlineConnect=0;dashed=0;verticalLabelPosition=bottom;verticalAlign=top;align=center;html=1;shape=mxgraph.aws3.redis;fillColor=#2E73B8;gradientColor=none;sketch=0;fontFamily=Comic Sans MS;" vertex="1" parent="1">
          <mxGeometry x="420" y="550" width="40" height="43" as="geometry" />
        </mxCell>
        <mxCell id="hvwg3h25CJ3MVEDBDSs3-41" value="" style="edgeStyle=orthogonalEdgeStyle;rounded=0;sketch=1;orthogonalLoop=1;jettySize=auto;html=1;fontFamily=Comic Sans MS;" edge="1" parent="1" source="hvwg3h25CJ3MVEDBDSs3-37" target="hvwg3h25CJ3MVEDBDSs3-40">
          <mxGeometry relative="1" as="geometry" />
        </mxCell>
        <mxCell id="hvwg3h25CJ3MVEDBDSs3-37" value="User" style="shape=umlActor;verticalLabelPosition=bottom;verticalAlign=top;html=1;outlineConnect=0;sketch=1;fontFamily=Comic Sans MS;" vertex="1" parent="1">
          <mxGeometry x="731" y="20" width="30" height="60" as="geometry" />
        </mxCell>
        <mxCell id="hvwg3h25CJ3MVEDBDSs3-47" value="" style="edgeStyle=orthogonalEdgeStyle;rounded=0;sketch=1;orthogonalLoop=1;jettySize=auto;html=1;fontFamily=Comic Sans MS;" edge="1" parent="1" source="hvwg3h25CJ3MVEDBDSs3-40" target="hvwg3h25CJ3MVEDBDSs3-46">
          <mxGeometry relative="1" as="geometry" />
        </mxCell>
        <mxCell id="hvwg3h25CJ3MVEDBDSs3-48" value="Each CorpoTree" style="edgeLabel;html=1;align=center;verticalAlign=middle;resizable=0;points=[];fontFamily=Comic Sans MS;" vertex="1" connectable="0" parent="hvwg3h25CJ3MVEDBDSs3-47">
          <mxGeometry x="-0.1818" y="-1" relative="1" as="geometry">
            <mxPoint as="offset" />
          </mxGeometry>
        </mxCell>
        <mxCell id="hvwg3h25CJ3MVEDBDSs3-40" value="Request&lt;br&gt;CorpoTree Api" style="whiteSpace=wrap;html=1;fontFamily=Comic Sans MS;verticalAlign=top;sketch=1;fillColor=#FFB570;" vertex="1" parent="1">
          <mxGeometry x="686" y="150" width="120" height="40" as="geometry" />
        </mxCell>
        <mxCell id="hvwg3h25CJ3MVEDBDSs3-50" value="" style="edgeStyle=orthogonalEdgeStyle;rounded=0;sketch=1;orthogonalLoop=1;jettySize=auto;html=1;fontFamily=Comic Sans MS;" edge="1" parent="1" source="hvwg3h25CJ3MVEDBDSs3-46" target="hvwg3h25CJ3MVEDBDSs3-49">
          <mxGeometry relative="1" as="geometry" />
        </mxCell>
        <mxCell id="hvwg3h25CJ3MVEDBDSs3-51" value="Y" style="edgeLabel;html=1;align=center;verticalAlign=middle;resizable=0;points=[];fontFamily=Comic Sans MS;" vertex="1" connectable="0" parent="hvwg3h25CJ3MVEDBDSs3-50">
          <mxGeometry x="-0.381" y="1" relative="1" as="geometry">
            <mxPoint as="offset" />
          </mxGeometry>
        </mxCell>
        <mxCell id="hvwg3h25CJ3MVEDBDSs3-46" value="High-Value" style="rhombus;whiteSpace=wrap;html=1;fontFamily=Comic Sans MS;verticalAlign=top;fillColor=#FFB570;sketch=1;" vertex="1" parent="1">
          <mxGeometry x="698.5" y="264" width="95" height="30" as="geometry" />
        </mxCell>
        <mxCell id="hvwg3h25CJ3MVEDBDSs3-55" style="edgeStyle=orthogonalEdgeStyle;rounded=0;sketch=1;orthogonalLoop=1;jettySize=auto;html=1;entryX=0.5;entryY=0;entryDx=0;entryDy=0;fontFamily=Comic Sans MS;" edge="1" parent="1" source="hvwg3h25CJ3MVEDBDSs3-49" target="hvwg3h25CJ3MVEDBDSs3-54">
          <mxGeometry relative="1" as="geometry" />
        </mxCell>
        <mxCell id="hvwg3h25CJ3MVEDBDSs3-57" value="N" style="edgeLabel;html=1;align=center;verticalAlign=middle;resizable=0;points=[];fontFamily=Comic Sans MS;" vertex="1" connectable="0" parent="hvwg3h25CJ3MVEDBDSs3-55">
          <mxGeometry x="-0.2462" relative="1" as="geometry">
            <mxPoint as="offset" />
          </mxGeometry>
        </mxCell>
        <mxCell id="hvwg3h25CJ3MVEDBDSs3-75" style="edgeStyle=orthogonalEdgeStyle;rounded=0;sketch=1;orthogonalLoop=1;jettySize=auto;html=1;entryX=0.5;entryY=0;entryDx=0;entryDy=0;fontFamily=Comic Sans MS;" edge="1" parent="1" source="hvwg3h25CJ3MVEDBDSs3-49" target="hvwg3h25CJ3MVEDBDSs3-60">
          <mxGeometry relative="1" as="geometry" />
        </mxCell>
        <mxCell id="hvwg3h25CJ3MVEDBDSs3-77" value="Y" style="edgeLabel;html=1;align=center;verticalAlign=middle;resizable=0;points=[];fontFamily=Comic Sans MS;" vertex="1" connectable="0" parent="hvwg3h25CJ3MVEDBDSs3-75">
          <mxGeometry x="-0.567" y="1" relative="1" as="geometry">
            <mxPoint x="1" as="offset" />
          </mxGeometry>
        </mxCell>
        <mxCell id="hvwg3h25CJ3MVEDBDSs3-49" value="User Obtains" style="rhombus;whiteSpace=wrap;html=1;fontFamily=Comic Sans MS;verticalAlign=top;fillColor=#FFB570;sketch=1;" vertex="1" parent="1">
          <mxGeometry x="698.5" y="390" width="95" height="30" as="geometry" />
        </mxCell>
        <mxCell id="hvwg3h25CJ3MVEDBDSs3-61" value="" style="edgeStyle=orthogonalEdgeStyle;rounded=0;sketch=1;orthogonalLoop=1;jettySize=auto;html=1;fontFamily=Comic Sans MS;" edge="1" parent="1" source="hvwg3h25CJ3MVEDBDSs3-54" target="hvwg3h25CJ3MVEDBDSs3-60">
          <mxGeometry relative="1" as="geometry" />
        </mxCell>
        <mxCell id="hvwg3h25CJ3MVEDBDSs3-62" value="N" style="edgeLabel;html=1;align=center;verticalAlign=middle;resizable=0;points=[];fontFamily=Comic Sans MS;" vertex="1" connectable="0" parent="hvwg3h25CJ3MVEDBDSs3-61">
          <mxGeometry x="-0.3381" y="-1" relative="1" as="geometry">
            <mxPoint as="offset" />
          </mxGeometry>
        </mxCell>
        <mxCell id="hvwg3h25CJ3MVEDBDSs3-64" style="edgeStyle=orthogonalEdgeStyle;rounded=0;sketch=1;orthogonalLoop=1;jettySize=auto;html=1;entryX=0.5;entryY=0;entryDx=0;entryDy=0;fontFamily=Comic Sans MS;" edge="1" parent="1" source="hvwg3h25CJ3MVEDBDSs3-54" target="hvwg3h25CJ3MVEDBDSs3-63">
          <mxGeometry relative="1" as="geometry" />
        </mxCell>
        <mxCell id="hvwg3h25CJ3MVEDBDSs3-65" value="Y" style="edgeLabel;html=1;align=center;verticalAlign=middle;resizable=0;points=[];fontFamily=Comic Sans MS;" vertex="1" connectable="0" parent="hvwg3h25CJ3MVEDBDSs3-64">
          <mxGeometry x="-0.3626" relative="1" as="geometry">
            <mxPoint y="1" as="offset" />
          </mxGeometry>
        </mxCell>
        <mxCell id="hvwg3h25CJ3MVEDBDSs3-74" style="edgeStyle=orthogonalEdgeStyle;rounded=0;sketch=1;orthogonalLoop=1;jettySize=auto;html=1;entryX=0.5;entryY=1;entryDx=0;entryDy=0;fontFamily=Comic Sans MS;" edge="1" parent="1" target="hvwg3h25CJ3MVEDBDSs3-69">
          <mxGeometry relative="1" as="geometry">
            <mxPoint x="832" y="590" as="sourcePoint" />
          </mxGeometry>
        </mxCell>
        <mxCell id="hvwg3h25CJ3MVEDBDSs3-54" value="User Limitation&amp;nbsp;&lt;br&gt;Exceed" style="rhombus;whiteSpace=wrap;html=1;fontFamily=Comic Sans MS;verticalAlign=top;fillColor=#FFB570;sketch=1;" vertex="1" parent="1">
          <mxGeometry x="689.75" y="575" width="112.5" height="45" as="geometry" />
        </mxCell>
        <mxCell id="hvwg3h25CJ3MVEDBDSs3-58" value="14W" style="text;html=1;align=center;verticalAlign=middle;resizable=0;points=[];autosize=1;strokeColor=none;fillColor=none;fontFamily=Comic Sans MS;" vertex="1" parent="1">
          <mxGeometry x="40" y="200" width="40" height="20" as="geometry" />
        </mxCell>
        <mxCell id="hvwg3h25CJ3MVEDBDSs3-59" value="7W" style="text;html=1;align=center;verticalAlign=middle;resizable=0;points=[];autosize=1;strokeColor=none;fillColor=none;fontFamily=Comic Sans MS;" vertex="1" parent="1">
          <mxGeometry x="420" y="530" width="40" height="20" as="geometry" />
        </mxCell>
        <mxCell id="hvwg3h25CJ3MVEDBDSs3-76" style="edgeStyle=orthogonalEdgeStyle;rounded=0;sketch=1;orthogonalLoop=1;jettySize=auto;html=1;entryX=0.5;entryY=0;entryDx=0;entryDy=0;fontFamily=Comic Sans MS;" edge="1" parent="1" source="hvwg3h25CJ3MVEDBDSs3-60" target="hvwg3h25CJ3MVEDBDSs3-66">
          <mxGeometry relative="1" as="geometry" />
        </mxCell>
        <mxCell id="hvwg3h25CJ3MVEDBDSs3-60" value="Add this one to user HyperLog" style="whiteSpace=wrap;html=1;fontFamily=Comic Sans MS;verticalAlign=top;fillColor=#97D077;sketch=1;" vertex="1" parent="1">
          <mxGeometry x="890" y="578.75" width="120" height="37.5" as="geometry" />
        </mxCell>
        <mxCell id="hvwg3h25CJ3MVEDBDSs3-63" value="Skip this CopoTree" style="whiteSpace=wrap;html=1;fontFamily=Comic Sans MS;verticalAlign=top;fillColor=#FFB570;sketch=1;" vertex="1" parent="1">
          <mxGeometry x="686" y="740" width="120" height="37.5" as="geometry" />
        </mxCell>
        <mxCell id="hvwg3h25CJ3MVEDBDSs3-66" value="Return this CopoTree" style="whiteSpace=wrap;html=1;fontFamily=Comic Sans MS;verticalAlign=top;fillColor=#FFB570;sketch=1;" vertex="1" parent="1">
          <mxGeometry x="890" y="740" width="120" height="37.5" as="geometry" />
        </mxCell>
        <mxCell id="hvwg3h25CJ3MVEDBDSs3-69" value="Add this one to User Scope BF" style="whiteSpace=wrap;html=1;fontFamily=Comic Sans MS;verticalAlign=top;fillColor=#97D077;sketch=1;" vertex="1" parent="1">
          <mxGeometry x="780" y="423" width="104" height="45" as="geometry" />
        </mxCell>
        <mxCell id="hvwg3h25CJ3MVEDBDSs3-78" value="" style="endArrow=none;dashed=1;html=1;rounded=0;sketch=1;fontFamily=Comic Sans MS;" edge="1" parent="1">
          <mxGeometry width="50" height="50" relative="1" as="geometry">
            <mxPoint x="40" y="200" as="sourcePoint" />
            <mxPoint x="1002" y="200" as="targetPoint" />
          </mxGeometry>
        </mxCell>
        <mxCell id="hvwg3h25CJ3MVEDBDSs3-81" value="" style="endArrow=none;dashed=1;html=1;rounded=0;sketch=1;fontFamily=Comic Sans MS;" edge="1" parent="1">
          <mxGeometry width="50" height="50" relative="1" as="geometry">
            <mxPoint x="42" y="521" as="sourcePoint" />
            <mxPoint x="1004" y="521" as="targetPoint" />
          </mxGeometry>
        </mxCell>
        <mxCell id="hvwg3h25CJ3MVEDBDSs3-83" value="" style="endArrow=none;dashed=1;html=1;rounded=0;sketch=1;fontFamily=Comic Sans MS;" edge="1" parent="1">
          <mxGeometry width="50" height="50" relative="1" as="geometry">
            <mxPoint x="40" y="360" as="sourcePoint" />
            <mxPoint x="1002" y="360" as="targetPoint" />
          </mxGeometry>
        </mxCell>
        <mxCell id="hvwg3h25CJ3MVEDBDSs3-87" value="" style="endArrow=none;dashed=1;html=1;rounded=0;sketch=1;fontFamily=Comic Sans MS;" edge="1" parent="1">
          <mxGeometry width="50" height="50" relative="1" as="geometry">
            <mxPoint x="40" y="680" as="sourcePoint" />
            <mxPoint x="1002" y="680" as="targetPoint" />
          </mxGeometry>
        </mxCell>
      </root>
    </mxGraphModel>
  </diagram>
</mxfile>
